<?xml version="1.0" encoding="UTF-8"?>
<svg width="40px" height="40px" viewBox="0 0 40 40" version="1.1" xmlns="http://www.w3.org/2000/svg" xmlns:xlink="http://www.w3.org/1999/xlink">
    <title>Group 3@1x</title>
    <g id="1.-Design" stroke="none" stroke-width="1" fill="none" fill-rule="evenodd">
        <g id="HP" transform="translate(-909, -1922)">
            <g id="Instagram" transform="translate(260, 1512)">
                <g id="Group-3" transform="translate(649, 410)">
                    <g id="left-arrow"   transform="translate(10, 12)" fill="#1b277f" fill-rule="nonzero">
                        <g id="left-arrow-2">
                            <path d="M17.931984,6.4893944 L17.9616425,6.49597212 L5.24771031,6.49597212 L9.24450619,2.43485411 C9.44022159,2.23658272 9.54757929,1.96799233 9.54757929,1.68608988 C9.54757929,1.40418743 9.44022159,1.13747639 9.24450619,0.938735159 L8.62260389,0.30790012 C8.42704295,0.109628731 8.16644951,0 7.88855527,0 C7.61050655,0 7.34975864,0.108845668 7.1541977,0.307117058 L0.302922772,7.25272359 C0.106589481,7.45177804 -0.000768219053,7.71692296 0,7.99898202 C-0.000768219053,8.28260721 0.106589481,8.54790873 0.302922772,8.74664996 L7.1541977,15.6928829 C7.34975864,15.8909977 7.61035207,16 7.88855527,16 C8.16644951,16 8.42704295,15.8908411 8.62260389,15.6928829 L9.24450619,15.0620479 C9.44022159,14.8640897 9.54757929,14.5997279 9.54757929,14.3178254 C9.54757929,14.0360796 9.44022159,13.7856563 9.24450619,13.5875415 L5.20260463,9.50371465 L17.9461954,9.50371465 C18.5188212,9.50371465 19,9.0033378 19,8.42308859 L19,7.53086734 C19,6.95061813 18.5046099,6.4893944 17.931984,6.4893944 Z" id="Path"></path>
                        </g>
                    </g>
                    <circle id="Oval" stroke="#1b277f" stroke-width="2"  cx="20" cy="20" r="19"></circle>
                </g>
            </g>
        </g>
    </g>
</svg>