<?xml version="1.0" encoding="UTF-8"?>
<svg width="110px" height="48px" viewBox="0 0 110 48" version="1.1" xmlns="http://www.w3.org/2000/svg" xmlns:xlink="http://www.w3.org/1999/xlink">
    <title>logo@1x</title>
    <g id="1.-Design" stroke="none" stroke-width="1" fill="none" fill-rule="evenodd">
        <g id="HP" transform="translate(-260, -32)">
            <g id="logo" transform="translate(260, 32)">
                <rect id="Rectangle" x="0" y="0" width="110" height="48"></rect>
                <g transform="translate(0.4688, 0.1553)">
                    <path d="M38.7298886,2.06485256 L45.0332296,5.82233702 C45.4509801,6.07132239 45.793808,6.27035933 46.1336087,6.46788269 C49.3840409,8.35532805 52.5481985,10.1935818 53.7166891,14.3612488 C54.4189943,16.8677521 53.6569023,19.1457034 52.2878612,21.1292616 C51.0240144,22.9599474 49.2591698,24.5053217 47.7274178,25.7169496 C45.267079,27.6634249 42.896042,29.8619128 40.665012,32.1935965 C38.2341882,34.7333987 35.9569937,37.4434796 33.90154,40.1671829 C31.6122367,43.2011718 29.0330812,45.7485419 26.0376888,47.0025504 C22.9143981,48.311048 19.4361708,48.2172054 15.5220299,45.8484388 L15.5273274,45.8484388 L6.44655081,40.3677334 C5.27351941,39.6601306 4.1966009,38.8783619 3.25817578,37.9164762 C2.29174927,36.9250754 1.48122241,35.7580984 0.878057228,34.308837 C0.0523944807,32.3283059 -0.198104483,30.163117 0.156832115,27.9956577 C0.49587603,25.9182569 1.38813669,23.8484241 2.85783152,21.9503836 C5.19556958,18.9300169 7.76110277,16.0594956 10.5188618,13.3706049 C13.2804047,10.6779302 16.2258487,8.17823815 19.3188676,5.90407082 C22.4565374,3.59660453 25.2892191,1.55174592 28.3481823,0.584562614 C31.5516932,-0.428028363 34.8641825,-0.240343339 38.7298886,2.06485256" id="Fill-118" fill="#FFFFFE"></path>
                    <path d="M48.9719663,19.6773515 C48.1841433,19.1127828 47.3668052,18.6435702 46.5267634,18.2742545 C46.2066394,18.6912483 45.7737529,19.1112692 45.2069139,19.5297765 C43.3588218,20.8980609 41.5629486,22.3412679 39.8306461,23.8586408 C40.7047437,24.4073168 41.5266225,24.9915621 42.2917416,25.6136471 C43.3149277,24.708521 44.3638449,23.835937 45.4377362,22.9989223 C46.6236331,22.0733627 47.9571049,20.9411982 48.9719663,19.6773515 L48.9719663,19.6773515 Z M43.4783953,17.834557 C43.6358086,17.720281 43.7803563,17.5954099 43.910525,17.4637277 C43.1219452,17.3176664 42.3189862,17.2556092 41.5069458,17.2805834 C39.599067,18.6965458 37.7426502,20.2010532 35.9543449,21.7895648 C36.5030209,22.0393069 37.0373178,22.2988874 37.5579923,22.5667927 C39.4613304,20.8957905 41.4411047,19.3171173 43.4783953,17.834557 L43.4783953,17.834557 Z M38.645506,8.58955593 C39.1676941,7.91827925 39.731506,7.27500397 40.3346712,6.67940674 C39.1109346,5.95893842 37.8887115,5.23468613 36.6642181,4.5157314 C35.9399658,4.09041291 35.2422013,3.75666656 34.5671407,3.50465401 C34.1531741,4.22133836 33.781588,4.95315859 33.4607072,5.65773423 C34.3385887,6.07699835 35.2149567,6.6022137 36.1261372,7.11986111 C36.948016,7.58756008 37.7903282,8.08174686 38.645506,8.58955593 L38.645506,8.58955593 Z M34.5663839,3.50465401 C34.8645609,2.98927699 35.1839282,2.4822247 35.5222153,1.99938984 C32.4246556,0.877820465 29.7070067,1.29405741 27.0158456,2.53898429 C26.9795195,2.55563377 26.9431934,2.57304004 26.9068672,2.58968952 L27.1603934,3.86640176 C27.6273355,3.66131046 28.0920073,3.47967979 28.5528952,3.32378013 C30.4365566,2.73650764 32.3860591,2.69185677 34.5663839,3.50465401 L34.5663839,3.50465401 Z M19.3585994,11.3087184 C20.4536809,10.3422919 21.5987109,9.42354342 22.7626608,8.56609531 L21.697851,7.14180815 C20.7306677,7.85016775 19.7460781,8.62588207 18.7418119,9.45759917 C17.8313882,10.2113664 16.922478,10.9976759 16.0256766,11.8044188 L17.6172153,12.8775533 C18.1923791,12.3477972 18.7735972,11.8240954 19.3585994,11.3087184 L19.3585994,11.3087184 Z M6.97214456,25.0687551 C7.30286373,24.4194255 7.71304632,23.7837182 8.14820313,23.1797962 C7.3066477,22.9361084 6.43633408,22.7272331 5.53801907,22.554684 C5.39347133,22.7242059 5.25195077,22.8922143 5.11421418,23.0556819 C3.26006777,26.0351817 2.60771095,29.0782521 3.49164687,31.7678996 C4.40661136,31.1654912 5.36698352,30.6107609 6.37427694,30.1090062 C5.90582117,28.5749838 6.08291107,26.8131663 6.97214456,25.0687551 L6.97214456,25.0687551 Z M27.4843014,5.49578021 L27.7378275,6.77400604 C28.0912505,6.56513077 28.4386192,6.36836422 28.7776631,6.18673355 C29.6759781,5.70541228 30.6174304,5.87796141 31.5233134,6.40317676 L32.8363518,7.15543045 C33.0141985,6.68319071 33.2230737,6.17765201 33.4599504,5.65773423 C31.5868841,4.76244639 29.7092771,4.34620944 27.4843014,5.49578021 L27.4843014,5.49578021 Z M33.3532424,26.5392068 C32.5094166,27.3974117 31.6966193,28.2646981 30.9140939,29.1410661 C31.627751,29.6314689 32.3096228,30.1370076 32.9574389,30.6599525 C35.1074919,28.2495622 37.408147,25.982206 39.8306461,23.8593976 C39.1079074,23.4053209 38.3495993,22.9754617 37.5579923,22.5675495 C36.760331,23.2675843 35.9762919,23.9835119 35.2081456,24.7138185 L33.3532424,26.5392068 Z" id="Fill-120" fill="#FFA900"></path>
                    <path d="M38.6454303,8.5893289 C37.7902526,8.08151982 36.9479403,7.58808984 36.1260616,7.12039086 C35.214881,6.60198666 34.3385131,6.07752811 33.4606315,5.65750719 C33.2237548,6.17818177 33.0148796,6.68296367 32.8370329,7.1559602 L37.6767334,9.92885508 C37.6729494,9.93566623 37.6691655,9.94172058 37.6646247,9.94853173 C37.9733968,9.48764391 38.300332,9.03281044 38.6454303,8.5893289 L38.6454303,8.5893289 Z M35.2451528,32.7318287 C33.8874636,34.2832573 32.5865339,35.8793368 31.3431206,37.5026609 C30.7339011,38.2980519 30.1261951,39.0434945 29.5101645,39.7246095 C29.9589436,40.414806 30.3895596,41.1118137 30.800499,41.8148757 C31.5035611,41.0542973 32.1824057,40.2301482 32.8377897,39.3605913 C34.0759054,37.719861 35.3949981,36.0821578 36.7814456,34.4807807 C36.3092058,33.8783723 35.7960992,33.2956406 35.2451528,32.7318287 L35.2451528,32.7318287 Z M26.1477267,35.090757 C27.6234759,33.0247082 29.2187986,31.0396363 30.9140182,29.1415958 C30.5469729,28.8895833 30.1716028,28.6413547 29.787908,28.3976669 L29.4814063,28.2637143 C27.9193825,30.0293157 26.4451469,31.8705966 25.0730786,33.783773 C25.4386103,34.2166594 25.7965741,34.652573 26.1477267,35.090757 L26.1477267,35.090757 Z M18.7606561,36.0904825 C18.9226101,35.5698079 19.0951592,35.0627556 19.2752763,34.5685689 L15.1212315,32.1596921 L14.7027242,32.4601395 C14.353842,32.6811235 14.0163116,32.9104322 13.6886196,33.1488225 L18.7606561,36.0904825 Z M18.0583508,38.7649941 L11.5635408,34.9333438 C10.7000383,35.7673313 9.9159993,36.6694303 9.19477418,37.6260184 L16.338157,41.8746625 C16.7415285,42.1138095 17.1388455,42.3317663 17.5293515,42.5285329 C17.6171396,41.2223057 17.8025543,39.9660269 18.0583508,38.7649941 L18.0583508,38.7649941 Z" id="Fill-122" fill="#00BF5D"></path>
                    <path d="M43.4300362,13.2258301 L42.6505379,12.7793214 C42.2418689,13.1107974 41.8566605,13.4521116 41.4994535,13.7949395 L42.1941908,14.1930134 L42.1858661,14.1930134 C42.4287971,14.334534 42.6104278,14.4957312 42.7337853,14.6675235 C42.8851442,14.8771556 42.95931,15.1163027 42.963094,15.3592337 C42.9683916,15.6263821 42.8934689,15.9003417 42.7481644,16.1538678 C42.6074006,16.3975557 42.4023093,16.6253508 42.1374313,16.8175766 C41.9270424,16.9712059 41.7174103,17.1248351 41.5077783,17.279978 C42.3198187,17.2557606 43.1220208,17.3178177 43.9113575,17.463879 C45.1646091,16.2015459 45.1630955,14.2308531 43.4300362,13.2258301 L43.4300362,13.2258301 Z M30.8006504,41.8152541 C30.389711,41.1121921 29.9590949,40.4151844 29.5103158,39.7249879 C27.7802837,41.6366506 25.9844105,43.0397476 23.9115505,43.6005322 C22.0347002,44.1083413 19.903567,43.7231329 17.5295028,42.5281545 C17.4666889,43.4612821 17.4530666,44.4193838 17.5015015,45.401703 C22.8361455,47.9543707 27.1559283,45.7566396 30.8006504,41.8152541 L30.8006504,41.8152541 Z M20.7890166,35.446072 L19.2754276,34.5689473 C19.0953106,35.0623772 18.9227614,35.5701863 18.7608074,36.0901041 L20.3409942,37.0065822 C22.1595713,38.0615537 24.3444369,37.8852205 25.5454697,35.9478267 C25.7437498,35.6610016 25.9450572,35.3749333 26.1478781,35.0911354 C25.7967254,34.6529514 25.4387617,34.2170378 25.0732299,33.7833946 C24.844678,34.1020051 24.6191533,34.4228859 24.3958989,34.7452804 L24.3656271,34.7884176 C23.9811756,35.4097459 23.4589874,35.7571145 22.8944187,35.8721473 C22.2284396,36.0076135 21.4799699,35.8471731 20.7890166,35.446072 L20.7890166,35.446072 Z M23.5392076,9.60456865 C24.9642515,8.54278604 26.3961066,7.56727799 27.7379032,6.7741574 L27.4843771,5.49593157 C27.3655603,5.55723192 27.2467436,5.62231625 27.1271701,5.69194133 C25.6824495,6.53349677 24.2082139,7.50143687 22.7627365,8.56624667 L23.5392076,9.60456865 C21.8492856,10.8638746 20.1699587,12.2442677 18.6662081,13.5845507 L18.7275085,13.6261744 L19.5970653,14.1778775 C20.6936605,13.2099374 21.8765302,12.2268614 23.0790766,11.296761 C23.4453651,11.0129631 23.8131672,10.7344628 24.1809693,10.4620168 L23.5392076,9.60456865 Z M18.7418876,9.45775053 C19.7461538,8.62603343 20.7299866,7.85031911 21.6979267,7.14195951 L20.9736744,6.1740194 C19.1543405,7.49008495 17.3516561,8.96734772 15.5913523,10.5119652 C15.3771794,10.700407 15.1630066,10.8896056 14.9503474,11.0803178 L16.0249955,11.8045701 C16.9225537,10.9978272 17.8314638,10.210761 18.7418876,9.45775053 L18.7418876,9.45775053 Z M16.0249955,11.8045701 C14.3570205,13.3037799 12.7283988,14.8695877 11.2057284,16.4089076 C11.7642427,16.7963863 12.2985396,17.2073257 12.8033215,17.6492937 C14.2942066,16.0448894 15.927369,14.4351876 17.617291,12.8777047 L16.0249955,11.8045701 Z M12.8025647,17.6492937 C12.0609061,18.4477118 11.3540601,19.2446164 10.6933786,20.0331962 C10.0213451,20.8596157 9.02994435,21.9562109 8.14827881,23.1791907 C8.60689625,23.3123866 9.05794575,23.4561775 9.49991371,23.6098068 C10.7955458,21.8828018 12.1993995,20.1830415 13.7122316,18.5158233 C13.4223794,18.2138623 13.118148,17.9255237 12.8025647,17.6492937 L12.8025647,17.6492937 Z M8.34882934,25.1907504 C7.37710527,26.5696299 7.30293941,28.1036522 8.06427463,29.3357136 C8.54483911,29.1344063 9.03524191,28.9444509 9.53699663,28.7658474 C9.21535899,28.4268035 9.0095109,28.0438655 8.92247954,27.6450348 C8.79912204,27.0751686 8.90961403,26.4424884 9.26530743,25.8241874 C9.3235806,25.7227769 9.38488095,25.626664 9.44920848,25.5350919 L9.44542451,25.5350919 C9.80641546,25.022742 10.1787583,24.5126626 10.5601827,24.0040967 C10.2128141,23.8656033 9.85939107,23.7346779 9.5006705,23.6098068 C9.10638059,24.1342653 8.7226858,24.6617511 8.34882934,25.1907504 L8.34882934,25.1907504 Z M5.11428985,23.0558333 C5.25202645,22.8916089 5.39354701,22.7243573 5.53809475,22.5548353 C5.11580344,22.4738583 4.68745778,22.4004493 4.25305777,22.3353649 C4.13802501,22.4814263 4.02374905,22.6274876 3.91174347,22.7727921 C1.41886254,25.9929525 0.769532904,29.7088133 1.8063413,32.9713542 C2.35123331,32.5513332 2.91277479,32.1502322 3.49172255,31.768051 C2.60702983,29.0784035 3.26014345,26.035333 5.11428985,23.0558333 L5.11428985,23.0558333 Z" id="Fill-124" fill="#1B277E"></path>
                    <path d="M52.4332414,14.7228452 C51.783155,12.4017566 50.3565974,10.8684911 48.6280789,9.60842831 C47.9015562,9.79459974 47.1780607,10.058721 46.4719715,10.3811154 C49.4295242,12.5039239 51.9405682,15.4826668 49.3954685,19.1145234 C49.2622726,19.3044788 49.1207521,19.4921639 48.9716636,19.6775785 C49.5528817,20.0938154 50.1166936,20.5615144 50.6630992,21.0791618 C52.1411187,19.2295562 53.0916526,17.0711784 52.4332414,14.7228452 L52.4332414,14.7228452 Z M43.9548731,11.807673 C44.7472369,11.2688353 45.5956035,10.7807029 46.4712147,10.3811154 C45.641768,9.78551821 44.7775087,9.25727568 43.9798474,8.80092862 C42.7598947,8.10316414 41.5467532,7.39329094 40.3351253,6.67963377 C39.7319601,7.27523101 39.1681482,7.91850629 38.6459601,8.58902618 C40.0528409,9.42452725 41.492264,10.2971113 42.9241191,11.1477482 C43.2661902,11.3513259 43.612802,11.5715531 43.9548731,11.807673 L43.9548731,11.807673 Z M40.3343685,6.67963377 C40.7884451,6.23161146 41.2644689,5.81159054 41.7624396,5.42865254 L38.0518764,3.21654236 C37.1777788,2.69586778 36.3369802,2.29476672 35.5219126,1.99961688 C35.1843822,2.48245174 34.865015,2.98950402 34.566838,3.50488105 C35.2426554,3.75613681 35.9396631,4.09063995 36.6646722,4.51595844 C37.8891656,5.23491317 39.1106318,5.95916546 40.3343685,6.67963377 L40.3343685,6.67963377 Z M32.3706205,8.56405196 C32.4856532,8.14857181 32.6423097,7.6717913 32.8368058,7.15565749 L31.5237675,6.4034038 C30.6171277,5.87743166 29.6764322,5.70488252 28.7773604,6.18696059 C28.4383165,6.36859125 28.0909478,6.56535781 27.7375248,6.77423308 L27.9653199,7.9177495 C28.3104182,7.7126582 28.6479485,7.52118921 28.9779109,7.3448561 C29.5946984,7.01413692 30.2008908,7.32063868 30.745026,7.63243799 L32.3706205,8.56405196 Z M19.5891189,14.1703853 L19.5891189,14.1703853 L18.6658297,13.5853832 C17.7410269,14.4102891 16.879038,15.2223296 16.1252707,15.979124 C15.29204,16.8161387 14.4883243,17.6614781 13.71261,18.515899 C13.9600818,18.7724523 14.1977153,19.0396008 14.4239968,19.3181011 C15.2156038,18.4402196 16.0435369,17.5668788 16.908553,16.6988355 C17.4443635,16.1607547 18.0346631,15.5954292 18.6635593,15.0179951 L19.5891189,14.1703853 L19.5891189,16.0691825 L32.817886,24.7329654 L32.817886,22.5670197 L19.5891189,14.1703853 Z M5.53771635,22.554911 C7.08763139,20.7363339 9.03940428,18.5991464 11.2061068,16.4089833 C10.8526838,16.1637819 10.4901792,15.927662 10.1201068,15.7006236 C7.93524118,17.9369513 5.93806062,20.1967395 4.25343617,22.3354406 C4.68783618,22.4005249 5.11542505,22.4731772 5.53771635,22.554911 L5.53771635,22.554911 Z M3.49210095,31.7688835 C2.9123964,32.1503079 2.35085491,32.5514089 1.8067197,32.9714298 C1.89526465,33.2491734 1.99591831,33.5246466 2.10868069,33.795579 C3.17651766,36.358085 4.96482295,37.9148112 7.12925508,39.2210384 L7.81491086,39.635005 C8.24931087,38.9432949 8.70717152,38.2720182 9.19454714,37.6257157 L7.73696103,36.7591861 C5.48776792,35.3659275 4.1119156,33.6540584 3.49210095,31.7688835 L3.49210095,31.7688835 Z M9.58959385,30.7721852 L13.6883926,33.1485197 C14.0160846,32.9108863 14.3536149,32.6808208 14.7024972,32.4605936 L15.1210045,32.1593894 L10.3077918,29.3683315 L10.3077918,29.3645475 C10.1980566,29.30022 10.0981597,29.2366492 10.0081012,29.1723217 C9.83025448,29.045937 9.67284124,28.909714 9.53661824,28.7659231 C9.03562031,28.9445266 8.54446071,29.134482 8.06389623,29.3357893 C8.40596733,29.889006 8.91604679,30.3816792 9.58959385,30.7721852 L9.58959385,30.7721852 Z M32.3236992,25.227909 C31.3481911,26.2132554 30.3999277,27.2250896 29.4811792,28.2634116 L29.787681,28.3973642 C30.1713758,28.6418088 30.5467458,28.8892806 30.9137911,29.1420499 C32.9904351,26.8171774 35.2161676,24.6224734 37.5584464,22.5670197 C37.0377718,22.2991145 36.5027182,22.0402908 35.954799,21.7897918 C34.7098721,22.8954685 33.4974874,24.0420121 32.3236992,25.227909 L32.3236992,25.227909 Z M41.4998319,13.7950152 C41.8570389,13.4521873 42.2422473,13.110873 42.6501595,12.7793971 L37.6772632,9.92930915 C37.4040604,10.3364646 37.1452367,10.7481608 36.900792,11.1598569 L41.4998319,13.7950152 Z M35.2449258,32.731526 C35.7958721,33.2953379 36.3089788,33.8780696 36.7819753,34.480478 C39.0213301,31.8937545 41.4362612,29.39936 43.9692522,27.1365446 C43.4463073,26.6045181 42.8862794,26.0974658 42.2914389,25.6138742 C39.7925036,27.823714 37.4434137,30.2197252 35.2449258,32.731526 L35.2449258,32.731526 Z" id="Fill-126" fill="#000031"></path>
                    <path d="M49.3956198,19.1142964 C51.9407196,15.4824398 49.4296756,12.5036968 46.4721228,10.3808884 C45.5965117,10.7804759 44.7481451,11.2686083 43.9550245,11.8074459 C46.3192504,13.4413652 48.4102734,15.816943 46.526612,18.2742545 C47.3674107,18.6435702 48.1847487,19.1127828 48.9718149,19.6773515 C49.1201466,19.4919368 49.262424,19.3050086 49.3956198,19.1142964 L49.3956198,19.1142964 Z M46.471366,10.3808884 C47.1774553,10.058494 47.9017076,9.7951295 48.6282302,9.60820127 C47.3098943,8.64631552 45.8152253,7.84487019 44.3553688,6.97455657 L41.7618342,5.42842551 C41.2638634,5.81212029 40.7885965,6.23214122 40.3345198,6.67940674 C41.5461478,7.3930639 42.7600461,8.1029371 43.9799987,8.80070159 C44.7776601,9.25704864 45.6419193,9.78529117 46.471366,10.3808884 L46.471366,10.3808884 Z M42.9242705,11.148278 C41.4924153,10.2968842 40.0522355,9.42430022 38.6453546,8.58955593 C38.3055539,9.02698313 37.9824027,9.47500544 37.6774145,9.92908211 L42.6503109,12.77917 C43.0635206,12.4431533 43.500191,12.1177317 43.9550245,11.8082027 C43.6137102,11.5720829 43.2663415,11.3510989 42.9242705,11.148278 L42.9242705,11.148278 Z M36.9001866,11.1596299 C37.1446312,10.7479337 37.4034549,10.3362375 37.6774145,9.92908211 L32.8369572,7.15543045 C32.642461,7.67156426 32.4858046,8.14910156 32.3707718,8.56458172 L36.9001866,11.1596299 Z M33.4605558,5.65773423 C33.7814367,4.95315859 34.1530227,4.22133836 34.5669893,3.50465401 L34.5669893,3.50465401 L34.5662325,3.50465401 C32.3859077,2.69185677 30.4364052,2.73650764 28.5535006,3.32378013 C28.091856,3.47967979 27.627941,3.66131046 27.160242,3.86640176 L27.160242,3.86640176 L27.160242,3.86715855 L27.48415,5.49578021 C29.7091257,4.34620944 31.5867328,4.76244639 33.459799,5.65773423 L33.4605558,5.65773423 Z M21.6976997,7.14180815 C23.5760635,5.76671263 25.3908566,4.64514325 27.160242,3.86640176 L26.9067159,2.58968952 C24.9299688,3.51524913 22.9418697,4.74958088 20.9734474,6.17386804 L21.6976997,7.14180815 Z M22.7625094,8.56609531 C21.5985596,9.42354342 20.4542864,10.3422919 19.358448,11.3087184 C18.7734459,11.8240954 18.1922277,12.3477972 17.617064,12.8775533 L18.6667379,13.5843993 C20.1704884,12.2441163 21.8490585,10.8637233 23.5389806,9.60441729 L22.7625094,8.56609531 Z M11.2062582,16.4079994 C12.7281718,14.8694363 14.3567935,13.3036286 16.0255252,11.8044188 L14.9501203,11.0801665 C13.2768478,12.5748355 11.6527669,14.1315617 10.1202581,15.7003966 C10.4903306,15.9281917 10.8528351,16.1635548 11.2062582,16.4079994 L11.2062582,16.4079994 Z M13.7127614,18.515672 C12.1991725,20.1828902 10.7960756,21.8826505 9.50044346,23.6096554 C9.85916403,23.7345265 10.212587,23.865452 10.5599557,24.0039453 C11.3144798,22.9989223 12.1091139,22.002224 12.9438582,21.0130937 C13.4221523,20.4462546 13.9155823,19.881686 14.4241482,19.3178741 C14.1971098,19.0401305 13.9602332,18.7729821 13.7127614,18.515672 L13.7127614,18.515672 Z M8.3493591,25.190599 C8.72245877,24.6615997 9.10691035,24.134114 9.50044346,23.6096554 C9.0584755,23.4560262 8.60742601,23.3122352 8.14880857,23.1790394 C7.71289497,23.7837182 7.30346917,24.4194255 6.9719932,25.0687551 C6.08275972,26.8131663 5.90566981,28.5749838 6.37412558,30.1090062 C6.92280156,29.8350466 7.48661342,29.5769797 8.06404759,29.3355623 C7.30271237,28.1027441 7.37687823,26.5694785 8.3493591,25.190599 L8.3493591,25.190599 Z M6.37412558,30.1090062 C5.36683216,30.6107609 4.40646,31.1654912 3.49225231,31.7678996 C4.11206696,33.6538314 5.48716248,35.3657005 7.73635559,36.758959 L9.1946985,37.6262455 C9.91592362,36.6696573 10.6999627,35.7675583 11.5634651,34.9335708 L9.1402093,33.5039861 C7.73181483,32.6730258 6.7941465,31.4825881 6.37412558,30.1090062 L6.37412558,30.1090062 Z M13.688544,33.1490495 C12.9294791,33.6999959 12.2233899,34.2971067 11.5634651,34.9335708 L18.0590319,38.7652211 L18.7613372,36.0899527 L13.688544,33.1490495 Z M18.813556,39.2102163 L18.0590319,38.7652211 C17.8032354,39.9662539 17.617064,41.2225327 17.5292758,42.5287599 C19.9040968,43.7229816 22.0344732,44.10819 23.9120802,43.6003809 C25.9841834,43.0395962 27.7800567,41.6364993 29.5100888,39.7248365 C28.96444,38.887065 28.3915466,38.0591319 27.7921654,37.2387667 C25.6254629,40.0199863 23.2688049,41.8385634 18.813556,39.2102163 L18.813556,39.2102163 Z M16.3380813,41.8741327 L9.1946985,37.6262455 C8.70732288,38.2717912 8.24946223,38.9430678 7.81506222,39.634778 L16.2109399,44.7022736 C16.6476103,44.9663949 17.0774695,45.1987308 17.5012744,45.4015517 C17.4535964,44.4199893 17.4664619,43.4611307 17.5292758,42.5287599 C17.1387699,42.3319934 16.7414528,42.1140366 16.3380813,41.8741327 L16.3380813,41.8741327 Z M24.1807422,10.4626222 C25.47032,9.5075476 26.7591409,8.63345001 27.9647145,7.91752246 L27.7376762,6.77400604 C26.3966364,7.56712663 24.9640245,8.54263468 23.5389806,9.60441729 L24.1807422,10.4626222 Z M27.7929222,37.2387667 C28.7820525,35.9688656 29.7318296,34.4991708 30.823884,33.1596446 C31.5163509,32.3105212 32.2284945,31.4765338 32.9572875,30.6599525 C32.3094715,30.1377644 31.6268429,29.6322257 30.9139425,29.1425797 C29.2187229,31.0406202 27.6234002,33.0249352 26.147651,35.0909841 C26.7160037,35.8001005 27.2639228,36.516028 27.7929222,37.2387667 L27.7929222,37.2387667 Z M46.526612,18.2742545 C45.6759751,17.9003981 44.8003639,17.6309793 43.9081032,17.4659981 C43.7779346,17.5969235 43.6349004,17.7210378 43.478244,17.834557 C41.4417101,19.3171173 39.4619358,20.8957905 37.5585978,22.5667927 C38.349448,22.9747049 39.107756,23.4053209 39.8304947,23.8586408 C41.563554,22.3412679 43.3586705,20.8980609 45.2067625,19.5297765 C45.7736016,19.1112692 46.206488,18.6912483 46.526612,18.2742545 L46.526612,18.2742545 Z M43.8044224,17.4448078 C43.8392349,17.4508622 43.8732907,17.4599437 43.9081032,17.4659981 C43.90886,17.4652413 43.9096168,17.4644845 43.9111304,17.4637277 C43.8755611,17.4576733 43.8399917,17.4508622 43.8044224,17.4448078 L43.8044224,17.4448078 Z M32.9572875,30.6599525 C33.7776527,31.3221477 34.5420151,32.0115874 35.2450771,32.7320558 C37.443565,30.2194982 39.7918982,27.8234869 42.2915903,25.6144039 C42.8864307,26.0979956 43.4464586,26.6050479 43.9694036,27.1363176 C44.9312893,26.2765991 45.9105814,25.4501795 46.9034957,24.6646269 C48.1506929,23.6777669 49.5553034,22.4653822 50.6632505,21.0796916 C50.1168449,20.5612874 49.5522763,20.0935884 48.9718149,19.6773515 C47.9569536,20.9411982 46.6234817,22.0733627 45.4375848,22.9989223 C44.3636935,23.835937 43.3147764,24.7092778 42.2908335,25.6136471 C41.5264711,24.9915621 40.7053491,24.4080736 39.8312515,23.8593976 C37.4079957,25.982206 35.1073406,28.2495622 32.9572875,30.6599525 L32.9572875,30.6599525 Z" id="Fill-128" fill="#E00300"></path>
                    <path d="M108.935591,43.2026854 L108.935591,42.5768164 C108.850073,42.6093586 108.753203,42.6252512 108.647252,42.6252512 C108.426268,42.6252512 108.315776,42.4837307 108.315776,42.2022031 L108.315776,38.7769514 L107.567307,38.7769514 L107.567307,42.3618868 C107.567307,42.6759565 107.64677,42.9075356 107.806454,43.0551105 C107.96538,43.2026854 108.176526,43.2760945 108.438377,43.2760945 C108.647252,43.2760945 108.81299,43.2511202 108.935591,43.2026854 L108.935591,43.2026854 Z M108.795584,26.0181538 C108.339237,25.1266499 107.764073,24.3047711 107.09431,23.5737077 C107.631634,22.6791767 107.900296,21.6605313 107.900296,20.5170149 C107.900296,18.863419 107.331187,17.4648629 106.193725,16.3221033 C105.056263,15.1793436 103.618353,14.6079638 101.880753,14.6079638 C100.152991,14.6079638 98.718109,15.1793436 97.5753494,16.3221033 C96.4325897,17.4648629 95.8612099,18.863419 95.8612099,20.5170149 C95.8612099,22.1812059 96.4295626,23.5820324 97.5670246,24.7194945 C98.7044867,25.8569566 100.142396,26.426066 101.880753,26.426066 C103.53889,26.426066 104.92458,25.906905 106.036311,24.8700966 C106.537309,25.446774 106.970952,26.0832381 107.320592,26.7681371 L108.795584,26.0181538 Z M98.927741,21.6045285 C99.0609369,21.6045285 99.1948895,21.6067989 99.3311125,21.6128533 C99.8056226,21.6295027 100.274078,21.6779376 100.699397,21.761185 C101.84367,21.9859529 102.9274,22.4264073 103.900637,23.038654 C103.354989,23.5373816 102.681442,23.7871237 101.880753,23.7871237 C100.974113,23.7871237 100.229427,23.4692701 99.6444254,22.8312923 C99.310679,22.4665174 99.0707752,22.0570916 98.927741,21.6045285 L98.927741,21.6045285 Z M104.977556,20.5170149 C104.977556,20.9226567 104.918526,21.301054 104.80198,21.6537202 C103.653922,20.9256839 102.371913,20.4034957 101.016494,20.1378609 C100.491278,20.0349368 99.9357913,19.9766637 99.3893857,19.9562302 C99.1964031,19.9494191 99.0026637,19.9471487 98.8096811,19.9494191 C98.9088212,19.2917647 99.1873215,18.7120601 99.6444254,18.2103054 C100.229427,17.5677869 100.974113,17.2461493 101.880753,17.2461493 C102.786636,17.2461493 103.529051,17.5677869 104.107999,18.2103054 C104.687704,18.8528239 104.977556,19.6217271 104.977556,20.5170149 L104.977556,20.5170149 Z M96.3160434,40.2194017 C96.1230608,40.1043689 95.9126719,40.0476093 95.6833632,40.0476093 C95.2746942,40.0476093 94.9341367,40.1974546 94.6616907,40.4956316 C94.3900015,40.7945655 94.2530217,41.182801 94.2530217,41.6618519 C94.2530217,42.1446868 94.3884879,42.5344359 94.6586635,42.8310993 C94.9288392,43.1277628 95.2640991,43.2760945 95.6652002,43.2760945 C95.8899681,43.2760945 96.092789,43.2246324 96.2729061,43.1224652 C96.4530232,43.0195411 96.5884894,42.8931565 96.6777911,42.7417976 L96.6898998,42.7417976 L96.6717368,42.9938101 L96.6717368,44.5467524 L97.4209633,44.5467524 L97.4209633,40.1270728 L96.7330371,40.1270728 L96.7209284,40.4154114 C96.7209284,40.4524944 96.7216852,40.4888205 96.7239556,40.5259034 C96.726226,40.5629864 96.7292532,40.590231 96.7330371,40.6061236 L96.7330371,40.6303411 L96.7209284,40.6303411 C96.6429786,40.4706574 96.5082692,40.3336776 96.3160434,40.2194017 L96.3160434,40.2194017 Z M95.8067207,40.6855871 C96.0314887,40.6855871 96.229012,40.770348 96.3992908,40.9406268 C96.5688127,41.1101487 96.6535737,41.3508094 96.6535737,41.6618519 C96.6535737,41.9721376 96.5688127,42.2127983 96.3992908,42.383077 C96.229012,42.552599 96.0314887,42.6373599 95.8067207,42.6373599 C95.5569786,42.6373599 95.3541576,42.5480582 95.1990148,42.3679411 C95.0431151,42.187824 94.9659221,41.952461 94.9659221,41.6618519 C94.9659221,41.3750268 95.0431151,41.1404205 95.1990148,40.9587899 C95.3541576,40.7771592 95.5569786,40.6855871 95.8067207,40.6855871 L95.8067207,40.6855871 Z M95.1013883,36.2053639 C95.4041061,35.9011325 95.555465,35.5151674 95.555465,35.048982 C95.555465,34.5827966 95.4041061,34.1960746 95.1013883,33.8918433 C94.7986705,33.5868551 94.4134621,33.4347394 93.9472768,33.4347394 C93.4848753,33.4347394 93.1011806,33.5883687 92.7961924,33.8941136 C92.4912042,34.2013722 92.3390885,34.5865806 92.3390885,35.048982 C92.3390885,35.5113834 92.4912042,35.895835 92.7961924,36.2030935 C93.1011806,36.5095953 93.4848753,36.6632245 93.9472768,36.6632245 C94.4134621,36.6632245 94.7986705,36.5103521 95.1013883,36.2053639 L95.1013883,36.2053639 Z M94.8433214,35.048982 C94.8433214,35.3350503 94.7585604,35.5696566 94.5890384,35.752044 C94.4187597,35.9336747 94.2045869,36.0252468 93.9472768,36.0252468 C93.6892098,36.0252468 93.4742802,35.9344315 93.3024879,35.7543144 C93.1352363,35.5704134 93.0512321,35.3350503 93.0512321,35.048982 C93.0512321,34.7629137 93.1359931,34.5283074 93.3055151,34.3459199 C93.4757938,34.1635325 93.6892098,34.0727171 93.9472768,34.0727171 C94.2045869,34.0727171 94.4187597,34.1635325 94.5890384,34.3459199 C94.7585604,34.5283074 94.8433214,34.7629137 94.8433214,35.048982 L94.8433214,35.048982 Z M87.2662953,26.205082 L94.9606245,26.205082 L94.9606245,23.771231 L90.1572501,23.771231 L90.1572501,21.5909062 L94.0600391,21.5909062 L94.0600391,19.2849535 L90.1572501,19.2849535 L90.1572501,17.262042 L94.7237479,17.262042 L94.7237479,14.8289478 L87.2662953,14.8289478 L87.2662953,26.205082 Z M87.3026215,33.7450251 C87.0755831,33.5376635 86.737296,33.4347394 86.2870033,33.4347394 C85.8246019,33.4347394 85.4567998,33.5081485 85.1820834,33.6557234 L85.1820834,34.330784 C85.4567998,34.1589917 85.7860054,34.0727171 86.170457,34.0727171 C86.6578326,34.0727171 86.9007636,34.2740245 86.9007636,34.6743687 L86.9007636,34.7909151 C86.3074368,34.7091813 85.8367106,34.7538321 85.489342,34.9263813 C85.1412165,35.0981736 84.9679106,35.3721332 84.9679106,35.74826 C84.9679106,36.0350851 85.0594827,36.2590963 85.2441405,36.4210503 C85.4280416,36.5822475 85.6611343,36.6632245 85.9434186,36.6632245 C86.2135942,36.6632245 86.4368486,36.5883019 86.6124249,36.4392134 C86.788758,36.2893681 86.9007636,36.1539019 86.9499552,36.0313012 L86.962064,36.0313012 L86.9499552,36.2636371 L86.962064,36.5837611 L87.6439358,36.5837611 L87.6439358,34.6372858 C87.6439358,34.2490502 87.5304166,33.9508732 87.3026215,33.7450251 L87.3026215,33.7450251 Z M86.8826005,35.232883 C86.8826005,35.453867 86.8076779,35.6506336 86.6585894,35.8224259 C86.5087441,35.9942182 86.3263566,36.079736 86.1091566,36.079736 C85.9827719,36.079736 85.8798479,36.0441667 85.8018981,35.9722712 C85.724705,35.9011325 85.6861085,35.8065332 85.6861085,35.6869597 C85.6861085,35.4985179 85.7860054,35.3592677 85.9865559,35.269966 C86.1871064,35.1799074 86.4852835,35.1670419 86.8826005,35.232883 L86.8826005,35.232883 Z M83.1743077,17.262042 L85.9252556,17.262042 L85.9252556,14.8289478 L77.5157556,14.8289478 L77.5157556,17.262042 L80.2674602,17.262042 L80.2674602,26.205082 L83.1743077,26.205082 L83.1743077,17.262042 Z M77.6814936,33.9380077 C77.591435,33.7949736 77.4567256,33.6746432 77.2766086,33.5785304 C77.0964915,33.4824175 76.8944274,33.4347394 76.6689026,33.4347394 C76.2678015,33.4347394 75.9325416,33.5830711 75.662366,33.8797345 C75.3929472,34.1756412 75.257481,34.5653903 75.257481,35.048982 C75.257481,35.5272761 75.3929472,35.9162684 75.6653932,36.2152022 C75.9378392,36.514136 76.2783967,36.6632245 76.6878225,36.6632245 C76.9163744,36.6632245 77.12752,36.602681 77.3197458,36.4815939 C77.5119716,36.3612636 77.646681,36.2174726 77.7246309,36.0494642 L77.7367396,36.0494642 L77.7246309,36.2636371 L77.7367396,36.5837611 L78.4246657,36.5837611 L78.4246657,32.1640815 L77.6754392,32.1640815 L77.6754392,33.6859952 C77.6754392,33.797244 77.6814936,33.8804913 77.6936023,33.9380077 L77.6814936,33.9380077 Z M77.6572762,35.048982 C77.6572762,35.3592677 77.5725152,35.6006851 77.4022364,35.7694503 C77.2327145,35.939729 77.0351911,36.0252468 76.8104232,36.0252468 C76.560681,36.0252468 76.3578601,35.9336747 76.2027172,35.752044 C76.0468176,35.5696566 75.9696245,35.3350503 75.9696245,35.048982 C75.9696245,34.7583729 76.0468176,34.5230098 76.2027172,34.3428928 C76.3578601,34.1635325 76.560681,34.0727171 76.8104232,34.0727171 C77.0351911,34.0727171 77.2327145,34.1574781 77.4022364,34.3277569 C77.5725152,34.4972788 77.6572762,34.7379395 77.6572762,35.048982 L77.6572762,35.048982 Z M68.7180201,26.205082 L76.4123493,26.205082 L76.4123493,23.771231 L71.6097317,23.771231 L71.6097317,21.5909062 L75.5117639,21.5909062 L75.5117639,19.2849535 L71.6097317,19.2849535 L71.6097317,17.262042 L76.1747158,17.262042 L76.1747158,14.8289478 L68.7180201,14.8289478 L68.7180201,26.205082 Z M67.9718208,33.4347394 C67.7054291,33.4347394 67.4723364,33.5081485 67.2717859,33.6557234 C67.0712354,33.8032983 66.9342556,33.9607116 66.8608465,34.1279631 L66.847981,34.1279631 L66.8608465,34.0545541 C66.8691712,34.0015785 66.8729552,33.9523868 66.8729552,33.9069791 L66.8547922,33.5142028 L66.1608116,33.5142028 L66.1608116,36.5837611 L66.9092814,36.5837611 L66.9092814,35.0610907 C66.9092814,34.7909151 66.9917719,34.5653903 67.1552395,34.38603 C67.3187071,34.205913 67.5275824,34.1158544 67.7811086,34.1158544 C68.1171253,34.1158544 68.2843769,34.3406224 68.2843769,34.7909151 L68.2843769,36.5837611 L69.0336034,36.5837611 L69.0336034,34.6615032 C69.0336034,33.8434084 68.6794236,33.4347394 67.9718208,33.4347394 L67.9718208,33.4347394 Z M63.6467405,26.426066 C65.0369719,26.426066 66.1956242,26.183135 67.1226974,25.6987865 L67.1226974,23.0288157 C66.1320534,23.5343544 65.0574053,23.7871237 63.8995098,23.7871237 C62.9096227,23.7871237 62.1165021,23.4715404 61.5216616,22.8388603 C60.9260644,22.2069369 60.6286442,21.433493 60.6286442,20.5170149 C60.6286442,19.59978 60.9366595,18.8263361 61.553447,18.1944127 C62.1687209,17.5617326 62.9936269,17.2461493 64.0258945,17.2461493 C65.047567,17.2461493 66.0533468,17.4996754 67.043234,18.0044573 L67.043234,15.3662719 C66.0745371,14.86149 64.9839963,14.6079638 63.7731251,14.6079638 C62.0241732,14.6079638 60.5786958,15.1763165 59.4359361,16.3145353 C58.2931765,17.4519974 57.7217967,18.8528239 57.7217967,20.5170149 C57.7217967,22.1812059 58.2856086,23.5820324 59.4117187,24.7194945 C60.5393424,25.8569566 61.9507641,26.426066 63.6467405,26.426066 L63.6467405,26.426066 Z M58.773741,32.7377317 C58.3302594,33.1736453 58.1077619,33.7192941 58.1077619,34.3731645 C58.1077619,35.0277917 58.3279891,35.5734405 58.7676866,36.0093541 C59.2073842,36.4452677 59.7613577,36.6632245 60.4280937,36.6632245 C60.7187027,36.6632245 60.9835808,36.6306824 61.2227278,36.5648413 C61.4626317,36.4997569 61.6457759,36.4293751 61.7721606,36.3567228 L61.7721606,35.6377681 C61.3627348,35.8466433 60.9253076,35.951081 60.4583654,35.951081 C59.9967208,35.951081 59.6190804,35.8004789 59.3262009,35.5000315 C59.0340783,35.1995841 58.8872602,34.8234572 58.8872602,34.3731645 C58.8872602,33.9228718 59.0348351,33.5482586 59.3292281,33.2470544 C59.6236212,32.946607 60.0065592,32.7960049 60.4772853,32.7960049 C60.9026038,32.7960049 61.3241383,32.9027129 61.741132,33.1161289 L61.741132,32.3971742 C61.3733299,32.1882989 60.9412003,32.0838613 60.4462567,32.0838613 C59.7757368,32.0838613 59.2179793,32.3018181 58.773741,32.7377317 L58.773741,32.7377317 Z M61.2249982,38.7769514 L58.4437786,38.7769514 L58.4437786,43.1958743 L61.3165703,43.1958743 L61.3165703,42.5457878 L59.2172225,42.5457878 L59.2172225,41.2751299 L60.9177397,41.2751299 L60.9177397,40.6424498 L59.2172225,40.6424498 L59.2172225,39.4270379 L61.2249982,39.4270379 L61.2249982,38.7769514 Z M62.7037746,40.1270728 L61.9553049,40.1270728 L61.9553049,42.0485739 C61.9553049,42.8666687 62.3064575,43.2760945 63.0110331,43.2760945 C63.2683432,43.2760945 63.4968952,43.2026854 63.6951753,43.0551105 C63.8934555,42.9075356 64.0296785,42.7508791 64.1030875,42.5828707 L64.1151962,42.5828707 C64.0993035,42.6479551 64.0909788,42.7236345 64.0909788,42.8099091 L64.1091419,43.1958743 L64.7963112,43.1958743 L64.7963112,40.1270728 L64.0538959,40.1270728 L64.0538959,41.6497432 C64.0538959,41.9199188 63.9729189,42.1446868 63.8117217,42.324047 C63.6497676,42.5049209 63.4461899,42.5949795 63.2009885,42.5949795 C63.0087627,42.5949795 62.8778373,42.5344359 62.8082122,42.4133488 C62.7385871,42.2930185 62.7037746,42.1280373 62.7037746,41.9199188 L62.7037746,40.1270728 Z M63.8162624,36.6632245 C64.2824478,36.6632245 64.6668994,36.5103521 64.970374,36.2053639 C65.2730917,35.9011325 65.4244506,35.5151674 65.4244506,35.048982 C65.4244506,34.5827966 65.2730917,34.1960746 64.970374,33.8918433 C64.6668994,33.5868551 64.2824478,33.4347394 63.8162624,33.4347394 C63.353861,33.4347394 62.9701662,33.5883687 62.6651781,33.8941136 C62.3601899,34.2013722 62.2080742,34.5865806 62.2080742,35.048982 C62.2080742,35.5113834 62.3601899,35.895835 62.6651781,36.2030935 C62.9701662,36.5095953 63.353861,36.6632245 63.8162624,36.6632245 L63.8162624,36.6632245 Z M64.4572673,35.752044 C64.2877454,35.9336747 64.0743293,36.0252468 63.8162624,36.0252468 C63.5581955,36.0252468 63.3432659,35.9344315 63.1714736,35.7543144 C63.004222,35.5704134 62.9202178,35.3350503 62.9202178,35.048982 C62.9202178,34.7629137 63.0049788,34.5283074 63.1745007,34.3459199 C63.3447795,34.1635325 63.5581955,34.0727171 63.8162624,34.0727171 C64.0743293,34.0727171 64.2877454,34.1635325 64.4572673,34.3459199 C64.6275461,34.5283074 64.7123071,34.7629137 64.7123071,35.048982 C64.7123071,35.3350503 64.6275461,35.5696566 64.4572673,35.752044 L64.4572673,35.752044 Z M66.4415824,40.1270728 L65.754413,40.1270728 L65.754413,43.1958743 L66.5028827,43.1958743 L66.5028827,41.8767815 C66.5028827,41.5778477 66.5868869,41.3182672 66.7548953,41.0972832 C66.9229037,40.8755425 67.1355629,40.7658073 67.392873,40.7658073 C67.4216312,40.7658073 67.4503894,40.7680777 67.4791476,40.7718616 C67.5079058,40.7764024 67.5298528,40.7801864 67.5465023,40.7839703 C67.5631518,40.7885111 67.5737469,40.7907815 67.5775309,40.7907815 L67.5775309,40.0665292 C67.5404479,40.0536637 67.4768772,40.0476093 67.3875754,40.0476093 C67.1862681,40.0476093 67.006151,40.1066393 66.8464674,40.225456 C66.6875406,40.3442728 66.5566151,40.5031996 66.4544479,40.7045069 L66.4544479,40.4888205 C66.4544479,40.4116275 66.4499071,40.2912971 66.4415824,40.1270728 L66.4415824,40.1270728 Z M68.4031936,40.5077404 C68.0982054,40.8149989 67.945333,41.1994505 67.945333,41.6618519 C67.945333,42.1242533 68.0982054,42.5087049 68.4031936,42.8152066 C68.707425,43.1224652 69.0911198,43.2760945 69.5535212,43.2760945 C70.0204633,43.2760945 70.4049149,43.123222 70.7076327,42.8189906 C71.0103505,42.5147592 71.1617094,42.1280373 71.1617094,41.6618519 C71.1617094,41.1949097 71.0103505,40.8097013 70.7076327,40.50547 C70.4049149,40.199725 70.0204633,40.0476093 69.5535212,40.0476093 C69.0911198,40.0476093 68.707425,40.2012386 68.4031936,40.5077404 L68.4031936,40.5077404 Z M68.6574765,41.6618519 C68.6574765,41.3750268 68.7429943,41.1404205 68.9125163,40.9587899 C69.0820382,40.7771592 69.2962111,40.6855871 69.5535212,40.6855871 C69.8115881,40.6855871 70.0250041,40.7771592 70.1952829,40.9587899 C70.3648048,41.1404205 70.4495658,41.3750268 70.4495658,41.6618519 C70.4495658,41.9479202 70.3648048,42.1825265 70.1952829,42.3641572 C70.0250041,42.5465446 69.8115881,42.6373599 69.5535212,42.6373599 C69.2962111,42.6373599 69.0812814,42.5480582 68.9094891,42.3679411 C68.7414807,42.1832833 68.6574765,41.9479202 68.6574765,41.6618519 L68.6574765,41.6618519 Z M70.7454724,33.5142028 L70.7454724,33.2811101 C70.7454724,33.1009931 70.798448,32.9632565 70.9021289,32.8671436 C71.0065665,32.7702739 71.1473303,32.7225958 71.3229066,32.7225958 C71.4333986,32.7225958 71.5378362,32.7347045 71.6362195,32.7596788 L71.6362195,32.1209442 C71.5378362,32.09597 71.4069108,32.0838613 71.2434432,32.0838613 C70.8703435,32.0838613 70.5789777,32.1852718 70.3685888,32.3880927 C70.1574431,32.5909136 70.0522487,32.8633596 70.0522487,33.2069443 L70.0522487,33.5142028 L69.6042264,33.5142028 L69.6042264,34.1098001 L70.0280313,34.1098001 L70.0280313,36.5837611 L70.776501,36.5837611 L70.776501,34.1098001 L71.512862,34.1098001 L71.512862,33.5142028 L70.7454724,33.5142028 Z M72.2802516,33.8941136 C71.9858585,34.2013722 71.8382836,34.5865806 71.8382836,35.048982 C71.8382836,35.5272761 71.9919129,35.9162684 72.2984146,36.2152022 C72.6056732,36.514136 73.0105582,36.6632245 73.5145833,36.6632245 C73.9807687,36.6632245 74.3614363,36.5837611 74.6558294,36.4233207 L74.6558294,35.7671799 C74.5453374,35.836805 74.3879241,35.8973486 74.1828328,35.9480538 C73.9784983,35.9995158 73.7741638,36.0252468 73.5690725,36.0252468 C73.2867882,36.0252468 73.0597499,35.9525946 72.8879575,35.8065332 C72.7161652,35.6612287 72.6261066,35.4599214 72.6177819,35.2018545 L74.760267,35.2018545 C74.760267,35.1897457 74.7632942,35.1450949 74.7693485,35.067145 C74.7754029,34.9891952 74.7784301,34.9241109 74.7784301,34.8711353 C74.7784301,34.4700342 74.6550726,34.1302335 74.4076008,33.8517332 C74.160129,33.5732328 73.8150307,33.4347394 73.3730628,33.4347394 C72.9394195,33.4347394 72.5746446,33.5883687 72.2802516,33.8941136 L72.2802516,33.8941136 Z M72.6177819,34.7666976 C72.6382154,34.5616063 72.7138948,34.3890572 72.8448202,34.2475367 C72.9757457,34.1067729 73.1482948,34.0356342 73.3609541,34.0356342 C73.581938,34.0356342 73.7537304,34.1067729 73.8763311,34.2475367 C73.9989318,34.3890572 74.0587185,34.5616063 74.0541778,34.7666976 L72.6177819,34.7666976 Z M72.5920509,40.1270728 L71.9041247,40.1270728 L71.9041247,44.5467524 L72.6533512,44.5467524 L72.6533512,42.9938101 C72.6533512,42.8833181 72.6472969,42.799314 72.6351882,42.7417976 L72.6472969,42.7417976 C72.7335715,42.8931565 72.8667673,43.0195411 73.0491547,43.1224652 C73.2315422,43.2246324 73.4343631,43.2760945 73.6598879,43.2760945 C74.0609889,43.2760945 74.3962489,43.1277628 74.6664245,42.8310993 C74.9366001,42.5344359 75.0720663,42.1446868 75.0720663,41.6618519 C75.0720663,41.182801 74.9358433,40.7945655 74.6633973,40.4956316 C74.3917081,40.1974546 74.0511506,40.0476093 73.6417248,40.0476093 C73.4124161,40.0476093 73.2020272,40.1043689 73.0090446,40.2194017 C72.8168188,40.3336776 72.6821094,40.4706574 72.6041596,40.6303411 L72.5920509,40.6303411 L72.5981052,40.6061236 C72.5981052,40.590231 72.5996188,40.5629864 72.6011324,40.5259034 C72.6034028,40.4888205 72.6041596,40.4524944 72.6041596,40.4154114 L72.5920509,40.1270728 Z M72.6715143,41.6618519 C72.6715143,41.3508094 72.7570321,41.1101487 72.926554,40.9406268 C73.096076,40.770348 73.2943561,40.6855871 73.5191241,40.6855871 C73.7681095,40.6855871 73.9709304,40.7771592 74.1260732,40.9587899 C74.2819729,41.1404205 74.3599227,41.3750268 74.3599227,41.6618519 C74.3599227,41.952461 74.2819729,42.187824 74.1260732,42.3679411 C73.9709304,42.5480582 73.7681095,42.6373599 73.5191241,42.6373599 C73.2943561,42.6373599 73.096076,42.552599 72.926554,42.383077 C72.7570321,42.2127983 72.6715143,41.9721376 72.6715143,41.6618519 L72.6715143,41.6618519 Z M76.0044371,40.5077404 C75.710044,40.8149989 75.5624691,41.1994505 75.5624691,41.6618519 C75.5624691,42.140146 75.7160984,42.5291383 76.0233569,42.8273154 C76.3298587,43.1262492 76.7355005,43.2760945 77.2387688,43.2760945 C77.7049542,43.2760945 78.0856218,43.1958743 78.3800149,43.0361906 L78.3800149,42.3800498 C78.2695229,42.4489181 78.1121096,42.5094617 77.9077751,42.5609237 C77.7026838,42.6116289 77.4983493,42.6373599 77.293258,42.6373599 C77.0117305,42.6373599 76.7846922,42.5647077 76.612143,42.4194031 C76.4403507,42.2748554 76.3502921,42.0727913 76.3419674,41.8154812 L78.4844525,41.8154812 C78.4844525,41.8026157 78.4874797,41.7579648 78.493534,41.680015 C78.5003452,41.6028219 78.5026156,41.5369808 78.5026156,41.4840052 C78.5026156,41.0829041 78.3792581,40.7431034 78.1317863,40.4646031 C77.8843145,40.1868595 77.5392162,40.0476093 77.0972483,40.0476093 C76.663605,40.0476093 76.2995869,40.2012386 76.0044371,40.5077404 L76.0044371,40.5077404 Z M76.3419674,41.3795676 C76.3624009,41.1752331 76.4388371,41.0019271 76.5697625,40.8611634 C76.700688,40.7196428 76.8724803,40.6492609 77.0851396,40.6492609 C77.3061235,40.6492609 77.4779159,40.7196428 77.6005166,40.8611634 C77.7231173,41.0019271 77.782904,41.1752331 77.7783633,41.3795676 L76.3419674,41.3795676 Z M78.957449,42.3618868 C78.957449,42.6479551 79.0490212,42.8719662 79.233679,43.0339202 C79.4175801,43.1958743 79.6506728,43.2760945 79.9329571,43.2760945 C80.2031327,43.2760945 80.4263871,43.2011718 80.6019634,43.0520833 C80.7782965,42.902238 80.8903021,42.7667718 80.9394937,42.6441711 L80.9516024,42.6441711 L80.9394937,42.876507 L80.9516024,43.1958743 L81.6334742,43.1958743 L81.6334742,41.2501557 C81.6334742,40.8619202 81.519955,40.5637431 81.2929167,40.3571383 C81.0658784,40.1505334 80.7268345,40.0476093 80.2765418,40.0476093 C79.8141404,40.0476093 79.4463382,40.1210184 79.1716219,40.2685933 L79.1716219,40.9444108 C79.4463382,40.7718616 79.7755438,40.6855871 80.1599954,40.6855871 C80.647371,40.6855871 80.8903021,40.8861376 80.8903021,41.2872386 L80.8903021,41.403785 C80.297732,41.3220512 79.8262491,41.3674589 79.4788804,41.5392512 C79.130755,41.7110435 78.957449,41.9850031 78.957449,42.3618868 L78.957449,42.3618868 Z M79.675647,42.2998296 C79.675647,42.1121446 79.7755438,41.9721376 79.9760944,41.8828359 C80.1766449,41.7927773 80.4755787,41.7806686 80.872139,41.8465097 C80.872139,42.0667369 80.7972163,42.2627467 80.6481278,42.4352958 C80.4990393,42.6070882 80.3158951,42.6926059 80.0986951,42.6926059 C79.9715536,42.6926059 79.8693863,42.6577934 79.7914365,42.5851411 C79.7142435,42.5147592 79.675647,42.4194031 79.675647,42.2998296 L79.675647,42.2998296 Z M80.216755,35.8065332 C80.0449627,35.6612287 79.9549041,35.4599214 79.9465794,35.2018545 L82.0883077,35.2018545 C82.0883077,35.1897457 82.0920917,35.1450949 82.098146,35.067145 C82.1042004,34.9891952 82.1072275,34.9241109 82.1072275,34.8711353 C82.1072275,34.4700342 81.98387,34.1302335 81.7356415,33.8517332 C81.4881697,33.5732328 81.1438282,33.4347394 80.7018602,33.4347394 C80.268217,33.4347394 79.9034421,33.5883687 79.6090491,33.8941136 C79.314656,34.2013722 79.1670811,34.5865806 79.1670811,35.048982 C79.1670811,35.5272761 79.3207104,35.9162684 79.6272121,36.2152022 C79.9344707,36.514136 80.3401125,36.6632245 80.8433808,36.6632245 C81.3095662,36.6632245 81.6902338,36.5837611 81.9846268,36.4233207 L81.9846268,35.7671799 C81.8741349,35.836805 81.7167216,35.8973486 81.5116303,35.9480538 C81.3072958,35.9995158 81.1029613,36.0252468 80.8986268,36.0252468 C80.6155857,36.0252468 80.3885473,35.9525946 80.216755,35.8065332 L80.216755,35.8065332 Z M79.9465794,34.7666976 C79.9670128,34.5616063 80.0426923,34.3890572 80.1736177,34.2475367 C80.3045432,34.1067729 80.4763355,34.0356342 80.6897515,34.0356342 C80.9107355,34.0356342 81.0825279,34.1067729 81.2051286,34.2475367 C81.3277293,34.3890572 81.3867592,34.5616063 81.3829753,34.7666976 L79.9465794,34.7666976 Z M83.5496778,36.5837611 L83.5496778,35.2639116 C83.5496778,34.9649778 83.633682,34.7053973 83.8016903,34.4836565 C83.9689419,34.2626725 84.1816011,34.1529373 84.439668,34.1529373 C84.4684262,34.1529373 84.4971844,34.1544509 84.5251858,34.1589917 C84.5547008,34.1635325 84.5766478,34.1673164 84.5932973,34.1718572 C84.6099468,34.1756412 84.6197851,34.1771548 84.6243259,34.1771548 L84.6243259,33.4529025 C84.587243,33.4407938 84.5236722,33.4347394 84.4336137,33.4347394 C84.2330632,33.4347394 84.0529461,33.4945262 83.8932625,33.6125861 C83.7335788,33.7314028 83.6026534,33.8903297 83.5004861,34.0908802 L83.5004861,33.8767074 C83.5004861,33.7987575 83.4959454,33.6776704 83.4883774,33.5142028 L82.8004513,33.5142028 L82.8004513,36.5837611 L83.5496778,36.5837611 Z M83.2045795,40.1270728 L82.510599,40.1270728 L82.510599,43.1958743 L83.2590687,43.1958743 L83.2590687,41.6747174 C83.2590687,41.403785 83.3415593,41.179017 83.5050269,40.9989 C83.6692513,40.8187829 83.8773698,40.7287243 84.1308959,40.7287243 C84.4669126,40.7287243 84.6341642,40.9542491 84.6341642,41.403785 L84.6341642,43.1958743 L85.3833907,43.1958743 L85.3833907,41.2751299 C85.3833907,40.4570351 85.0292109,40.0476093 84.3216081,40.0476093 C84.0559733,40.0476093 83.8221238,40.1210184 83.6215732,40.2685933 C83.4210227,40.4154114 83.2840429,40.5735815 83.2106339,40.7415898 L83.1985251,40.7415898 L83.2106339,40.6666672 C83.2189586,40.6144484 83.2227426,40.5652567 83.2227426,40.5198491 L83.2045795,40.1270728 Z M89.3005588,35.5151674 L89.3005588,34.1098001 L90.172386,34.1098001 L90.172386,33.5142028 L89.3005588,33.5142028 L89.3005588,32.593184 L88.5763065,32.593184 L88.5763065,33.5142028 L88.0980124,33.5142028 L88.0980124,34.1098001 L88.5641978,34.1098001 L88.5641978,35.4659757 C88.5641978,35.5030586 88.5649546,35.5552775 88.567225,35.6226322 C88.5694954,35.6899869 88.5702522,35.7399353 88.5702522,35.7732343 C88.5869016,36.079736 88.6867985,36.304504 88.8714564,36.4482949 C89.0553574,36.5913291 89.277855,36.6632245 89.5404627,36.6632245 C89.8515052,36.6632245 90.0967066,36.6163033 90.2768237,36.5224608 L90.2768237,35.895835 C90.0800571,35.9821095 89.896156,36.0252468 89.7243637,36.0252468 C89.4420794,36.0252468 89.3005588,35.8549681 89.3005588,35.5151674 L89.3005588,35.5151674 Z M90.5280794,38.7769514 L87.1762368,38.7769514 L87.1762368,39.4270379 L88.4658145,39.4270379 L88.4658145,43.1958743 L89.2385017,43.1958743 L89.2385017,39.4270379 L90.5280794,39.4270379 L90.5280794,38.7769514 Z M90.9057198,32.3237652 C90.8262564,32.4009582 90.7861463,32.5038822 90.7861463,32.6302669 C90.7861463,32.7574084 90.8254996,32.8595756 90.9026927,32.9367687 C90.9851833,33.0109345 91.0911345,33.0480174 91.2220599,33.0480174 C91.3529854,33.0480174 91.4581798,33.0101777 91.5384,32.9337415 C91.6178634,32.8588188 91.6579735,32.7574084 91.6579735,32.6302669 C91.6579735,32.5038822 91.6178634,32.4009582 91.5384,32.3237652 C91.4581798,32.2458153 91.3529854,32.2072188 91.2220599,32.2072188 C91.0911345,32.2072188 90.9859401,32.2458153 90.9057198,32.3237652 L90.9057198,32.3237652 Z M90.8474467,36.5837611 L91.5966732,36.5837611 L91.5966732,33.5142028 L90.8474467,33.5142028 L90.8474467,36.5837611 Z M91.2765491,40.5077404 C90.9821561,40.8149989 90.8345812,41.1994505 90.8345812,41.6618519 C90.8345812,42.140146 90.9882104,42.5291383 91.295469,42.8273154 C91.6019707,43.1262492 92.0068558,43.2760945 92.5101241,43.2760945 C92.9763095,43.2760945 93.3577339,43.1958743 93.6521269,43.0361906 L93.6521269,42.3800498 C93.5416349,42.4489181 93.3842217,42.5094617 93.1791304,42.5609237 C92.9747959,42.6116289 92.7704614,42.6373599 92.5661269,42.6373599 C92.2830857,42.6373599 92.0560474,42.5647077 91.8842551,42.4194031 C91.7124627,42.2748554 91.6224042,42.0727913 91.6140795,41.8154812 L93.7565645,41.8154812 C93.7565645,41.8026157 93.7595917,41.7579648 93.7656461,41.680015 C93.7717004,41.6028219 93.7747276,41.5369808 93.7747276,41.4840052 C93.7747276,41.0829041 93.6506133,40.7431034 93.4031415,40.4646031 C93.1556698,40.1868595 92.8113283,40.0476093 92.3693603,40.0476093 C91.9357171,40.0476093 91.5709422,40.2012386 91.2765491,40.5077404 L91.2765491,40.5077404 Z M91.6140795,41.3795676 C91.6345129,41.1752331 91.7101923,41.0019271 91.8411178,40.8611634 C91.9720432,40.7196428 92.1438356,40.6492609 92.3572516,40.6492609 C92.5782356,40.6492609 92.7500279,40.7196428 92.8718718,40.8611634 C92.9952293,41.0019271 93.0550161,41.1752331 93.0504753,41.3795676 L91.6140795,41.3795676 Z M97.2862539,34.38603 C97.4504783,34.205913 97.6585967,34.1158544 97.9128797,34.1158544 C98.2481396,34.1158544 98.4153912,34.3406224 98.4153912,34.7909151 L98.4153912,36.5837611 L99.1646177,36.5837611 L99.1646177,34.6615032 C99.1646177,33.8434084 98.8104379,33.4347394 98.1028351,33.4347394 C97.8364434,33.4347394 97.6033508,33.5081485 97.4028002,33.6557234 C97.2022497,33.8032983 97.0652699,33.9607116 96.9918608,34.1279631 L96.9797521,34.1279631 L96.9918608,34.0545541 C97.0001856,34.0015785 97.0039695,33.9523868 97.0039695,33.9069791 L96.9858065,33.5142028 L96.291826,33.5142028 L96.291826,36.5837611 L97.0410525,36.5837611 L97.0410525,35.0610907 C97.0410525,34.7909151 97.1227863,34.5653903 97.2862539,34.38603 L97.2862539,34.38603 Z M99.1578066,38.7769514 L98.4093368,38.7769514 L98.4093368,43.1958743 L99.0965062,43.1958743 L99.1086149,42.876507 C99.1123989,42.8326129 99.1123989,42.7940164 99.1086149,42.7637446 C99.1048309,42.7327161 99.1002902,42.7092554 99.0965062,42.6926059 L99.0965062,42.6623342 L99.1086149,42.6623342 C99.1865647,42.8295857 99.3227877,42.9741335 99.5172839,43.0944638 C99.7110233,43.2155509 99.9229257,43.2760945 100.152234,43.2760945 C100.557119,43.2760945 100.895407,43.1262492 101.167853,42.8273154 C101.439542,42.5291383 101.576522,42.140146 101.576522,41.6618519 C101.576522,41.179017 101.441055,40.7892679 101.17088,40.4926045 C100.900704,40.1951843 100.565444,40.0476093 100.164343,40.0476093 C99.9395752,40.0476093 99.7367543,40.0960442 99.5566372,40.1914003 C99.3765202,40.28827 99.2418107,40.4070867 99.1517522,40.5508776 L99.1396435,40.5508776 L99.1578066,40.2988651 L99.1578066,38.7769514 Z M99.1759696,41.6618519 C99.1759696,41.3508094 99.2607306,41.1101487 99.4310094,40.9406268 C99.6005313,40.770348 99.7980547,40.6855871 100.023579,40.6855871 C100.273322,40.6855871 100.475386,40.7764024 100.630529,40.9557627 C100.786428,41.1358798 100.863621,41.3712428 100.863621,41.6618519 C100.863621,41.9479202 100.786428,42.1825265 100.630529,42.3641572 C100.475386,42.5465446 100.273322,42.6373599 100.023579,42.6373599 C99.7980547,42.6373599 99.6005313,42.552599 99.4310094,42.383077 C99.2607306,42.2127983 99.1759696,41.9721376 99.1759696,41.6618519 L99.1759696,41.6618519 Z M102.042707,42.3618868 C102.042707,42.6479551 102.135036,42.8719662 102.318937,43.0339202 C102.502838,43.1958743 102.735931,43.2760945 103.018972,43.2760945 C103.288391,43.2760945 103.511645,43.2011718 103.687221,43.0520833 C103.863554,42.902238 103.976317,42.7667718 104.025508,42.6441711 L104.037617,42.6441711 L104.025508,42.876507 L104.037617,43.1958743 L104.718732,43.1958743 L104.718732,41.2501557 C104.718732,40.8619202 104.605213,40.5637431 104.378175,40.3571383 C104.151136,40.1505334 103.812092,40.0476093 103.3618,40.0476093 C102.900155,40.0476093 102.531596,40.1210184 102.25688,40.2685933 L102.25688,40.9444108 C102.531596,40.7718616 102.860802,40.6855871 103.24601,40.6855871 C103.732629,40.6855871 103.976317,40.8861376 103.976317,41.2872386 L103.976317,41.403785 C103.38299,41.3220512 102.912264,41.3674589 102.564138,41.5392512 C102.21677,41.7110435 102.042707,41.9850031 102.042707,42.3618868 L102.042707,42.3618868 Z M102.760905,42.2998296 C102.760905,42.1121446 102.860802,41.9721376 103.061352,41.8828359 C103.261903,41.7927773 103.560837,41.7806686 103.957397,41.8465097 C103.957397,42.0667369 103.883231,42.2627467 103.733386,42.4352958 C103.584297,42.6070882 103.401153,42.6926059 103.183953,42.6926059 C103.057568,42.6926059 102.955401,42.6577934 102.877451,42.5851411 C102.799501,42.5147592 102.760905,42.4194031 102.760905,42.2998296 L102.760905,42.2998296 Z M106.339029,38.7769514 L105.590559,38.7769514 L105.590559,42.3618868 C105.590559,42.6759565 105.670023,42.9075356 105.829706,43.0551105 C105.98939,43.2026854 106.199779,43.2760945 106.46163,43.2760945 C106.670505,43.2760945 106.836243,43.2511202 106.958844,43.2026854 L106.958844,42.5768164 C106.873326,42.6093586 106.777213,42.6252512 106.670505,42.6252512 C106.449521,42.6252512 106.339029,42.4837307 106.339029,42.2022031 L106.339029,38.7769514 Z" id="Fill-130" fill="#000031"></path>
                </g>
            </g>
        </g>
    </g>
</svg>