<?xml version="1.0" encoding="UTF-8"?>
<svg width="40px" height="40px" viewBox="0 0 40 40" version="1.1" xmlns="http://www.w3.org/2000/svg" xmlns:xlink="http://www.w3.org/1999/xlink">
    <title>Group 2@1x</title>
    <g id="1.-Design" stroke="none" stroke-width="1" fill="none" fill-rule="evenodd">
        <g id="HP" transform="translate(-973, -1922)">
            <g id="Instagram" transform="translate(260, 1512)">
                <g id="Group-2" transform="translate(713, 410)">
                    <g id="right-arrow" transform="translate(10, 12)" fill="#1B277F" fill-rule="nonzero">
                        <g id="right-arrow-6">
                            <path d="M18.6963074,7.25275584 L11.8347386,0.307090923 C11.6388703,0.108826519 11.3778156,0 11.0994602,0 C10.8207959,0 10.5598956,0.108982879 10.3640273,0.307090923 L9.74104878,0.937846924 C9.54533496,1.13579861 9.43751472,1.40020327 9.43751472,1.68212024 C9.43751472,1.96388085 9.54533496,2.23719803 9.74104878,2.43514971 L13.743991,6.49597373 L1.02645485,6.49597373 C0.453061259,6.49597373 0,6.95035572 0,7.53092018 L0,8.42264092 C0,9.00320538 0.453061259,9.50340083 1.02645485,9.50340083 L13.7894052,9.50340083 L9.74120325,13.586897 C9.54548943,13.7851614 9.43766919,14.0423735 9.43766919,14.3242905 C9.43766919,14.6058948 9.54548943,14.8668595 9.74120325,15.0649676 L10.3641818,15.6936909 C10.5600501,15.8919553 10.8209503,16 11.0996147,16 C11.3779701,16 11.6390248,15.890548 11.8348931,15.6922836 L18.6964618,8.74677508 C18.8927935,8.54788523 19.0007682,8.28238605 19,8.00015636 C19.0006138,7.71698851 18.8927935,7.45133297 18.6963074,7.25275584 Z" id="Path"></path>
                        </g>
                    </g>
                    <circle id="Oval" stroke="#1B277F" stroke-width="2" cx="20" cy="20" r="19"></circle>
                </g>
            </g>
        </g>
    </g>
</svg>