<svg width="40" height="40" viewBox="0 0 40 40" xmlns="http://www.w3.org/2000/svg"><g fill="none" fill-rule="evenodd"><path d="M27.932 18.49l.03.006H15.248l3.997-4.061c.195-.198.303-.467.303-.749a1.06 1.06 0 00-.303-.747l-.622-.631a1.024 1.024 0 00-.734-.308c-.278 0-.54.109-.735.307l-6.851 6.946c-.196.199-.304.464-.303.746 0 .284.107.549.303.748l6.851 6.946c.196.198.456.307.735.307.277 0 .538-.11.734-.307l.622-.631a1.05 1.05 0 000-1.474l-4.042-4.084h12.743c.573 0 1.054-.5 1.054-1.08v-.893c0-.58-.495-1.042-1.068-1.042z" fill="#1b277f" fill-rule="nonzero"/><circle stroke="#1b277f" stroke-width="2" cx="20" cy="20" r="19"/></g></svg>