<svg width="40" height="40" viewBox="0 0 40 40" xmlns="http://www.w3.org/2000/svg"><g fill="none" fill-rule="evenodd"><path d="M28.696 19.253l-6.861-6.946a1.026 1.026 0 00-.736-.307c-.278 0-.54.109-.735.307l-.623.63a1.051 1.051 0 00-.303.745c0 .282.107.555.303.753l4.003 4.061H11.026c-.573 0-1.026.454-1.026 1.035v.892c0 .58.453 1.08 1.026 1.08H23.79l-4.048 4.084a1.036 1.036 0 00-.303.737c0 .282.107.543.303.741l.623.629c.196.198.457.306.736.306.278 0 .539-.11.735-.308l6.861-6.945c.197-.2.305-.465.304-.747 0-.283-.107-.549-.304-.747z" fill="#1B277F" fill-rule="nonzero"/><circle stroke="#1B277F" stroke-width="2" cx="20" cy="20" r="19"/></g></svg>